# xmcd
#
# Track frame offsets:
#	150
#	9890
#	22680
#	38895
#	51587
#	62742
#	77292
#	92762
#	104920
#	115655
#	127232
#	140912
#
# Disc length: 2056 seconds
#
# Revision: 0
# Processed by: cddbd v1.5.2PL0 Copyright (c) Steve Scherf et al.
# Submitted via: EasyCDDAExtractor 16.0.6.1
#
DISCID=9f08060c
DTITLE=Ζαγοραίος Σπύρος - Χρόνια στον Περαία-LP 1971, Σπ. Ζαγοραίος
DYEAR=1993
DGENRE=Ρεμπέτικη
TTITLE0=Χρόνια στον Περαία [Μ. Βαμβακάρης]
TTITLE1=Όταν μπουκάρω στον τεκέ [Α. Δελλιάς]
TTITLE2=Το χάρο τον αντάμωσαν [Μ. Δασκαλάκης]
TTITLE3=Μαύρο μπεγλέρι [Σ. Ζαγοραίος]
TTITLE4=Ο μεμέτης [Χ. Μαρίνος]
TTITLE5=Η ξαβεριώτισσα [Δ. Γκόγκος Μπαγιαντέρας]
TTITLE6=Όσοι έχουνε πολλά λεφτά [Μ. Βαμβακάρης]
TTITLE7=Κάτω στα Λεμονάδικα [Β. Παπάζογλου]
TTITLE8=Οι γκόμενες φορέσανε τραγιάσκες [Μ. Βαμβακάρης]
TTITLE9=Ο Βοτανικός [διασκ. Σ. Ζαγοραίος]
TTITLE10=Από κάτω απ' το ραδίκι [Μ. Δασκαλάκης]
TTITLE11=Παίζει το μπαγλαμαδάκι [Στράτος]
EXTD=
EXTT0=
EXTT1=
EXTT2=
EXTT3=
EXTT4=
EXTT5=
EXTT6=
EXTT7=
EXTT8=
EXTT9=
EXTT10=
EXTT11=
PLAYORDER=
